<svg width="17" height="23" viewBox="0 0 17 23" fill="none" xmlns="http://www.w3.org/2000/svg">
<path d="M15.8291 8.4405L15.475 19.1589C15.4448 20.0769 15.0581 20.947 14.3969 21.5845C13.7358 22.222 12.8522 22.5768 11.9337 22.5736H5.20539C4.28752 22.5769 3.40445 22.2226 2.74338 21.5858C2.08231 20.949 1.69522 20.0798 1.66415 19.1625L1.31003 8.4405C1.30228 8.2057 1.38812 7.97744 1.54867 7.80593C1.70922 7.63443 1.93132 7.53372 2.16612 7.52597C2.40092 7.51822 2.62918 7.60407 2.80068 7.76462C2.97219 7.92516 3.0729 8.14727 3.08064 8.38207L3.43477 19.1032C3.4524 19.5608 3.6467 19.9939 3.97687 20.3113C4.30703 20.6288 4.74736 20.8059 5.20539 20.8056H11.9337C12.3923 20.8059 12.8332 20.6283 13.1634 20.3101C13.4937 19.9919 13.6876 19.5579 13.7043 19.0996L14.0585 8.38207C14.0662 8.14727 14.1669 7.92516 14.3384 7.76462C14.5099 7.60407 14.7382 7.51822 14.973 7.52597C15.2078 7.53372 15.4299 7.63443 15.5904 7.80593C15.751 7.97744 15.8368 8.2057 15.8291 8.4405ZM17.0004 4.87359C17.0004 5.10839 16.9071 5.33357 16.7411 5.4996C16.575 5.66562 16.3498 5.7589 16.115 5.7589H1.02496C0.790159 5.7589 0.564977 5.66562 0.398949 5.4996C0.232922 5.33357 0.139648 5.10839 0.139648 4.87359C0.139648 4.63879 0.232922 4.41361 0.398949 4.24758C0.564977 4.08155 0.790159 3.98828 1.02496 3.98828H3.76941C4.04992 3.98903 4.32068 3.8854 4.52899 3.69754C4.73731 3.50968 4.86827 3.25104 4.89641 2.97194C4.96174 2.31725 5.26847 1.71032 5.75684 1.26941C6.24521 0.82851 6.88023 0.585211 7.53817 0.586923H9.60094C10.2589 0.585211 10.8939 0.82851 11.3823 1.26941C11.8706 1.71032 12.1774 2.31725 12.2427 2.97194C12.2708 3.25104 12.4018 3.50968 12.6101 3.69754C12.8184 3.8854 13.0892 3.98903 13.3697 3.98828H16.1142C16.349 3.98828 16.5741 4.08155 16.7402 4.24758C16.9062 4.41361 16.9995 4.63879 16.9995 4.87359H17.0004ZM6.43331 3.98828H10.7076C10.5912 3.72246 10.5152 3.44079 10.4818 3.15255C10.4599 2.93433 10.3577 2.73201 10.1952 2.58481C10.0326 2.4376 9.82115 2.35599 9.60183 2.35577H7.53906C7.31974 2.35599 7.10831 2.4376 6.94573 2.58481C6.78315 2.73201 6.68099 2.93433 6.65906 3.15255C6.62545 3.44084 6.54995 3.72251 6.43331 3.98828ZM7.32481 17.4016V9.86319C7.32481 9.62839 7.23154 9.40321 7.06551 9.23718C6.89949 9.07115 6.6743 8.97788 6.43951 8.97788C6.20471 8.97788 5.97953 9.07115 5.8135 9.23718C5.64747 9.40321 5.5542 9.62839 5.5542 9.86319V17.4051C5.5542 17.6399 5.64747 17.8651 5.8135 18.0311C5.97953 18.1972 6.20471 18.2904 6.43951 18.2904C6.6743 18.2904 6.89949 18.1972 7.06551 18.0311C7.23154 17.8651 7.32481 17.6399 7.32481 17.4051V17.4016ZM11.5867 17.4016V9.86319C11.5867 9.62839 11.4934 9.40321 11.3274 9.23718C11.1614 9.07115 10.9362 8.97788 10.7014 8.97788C10.4666 8.97788 10.2414 9.07115 10.0754 9.23718C9.90935 9.40321 9.81607 9.62839 9.81607 9.86319V17.4051C9.81607 17.6399 9.90935 17.8651 10.0754 18.0311C10.2414 18.1972 10.4666 18.2904 10.7014 18.2904C10.9362 18.2904 11.1614 18.1972 11.3274 18.0311C11.4934 17.8651 11.5867 17.6399 11.5867 17.4051V17.4016Z" fill="#8F8F8F"/>
</svg>
