<?xml version="1.0" standalone="no"?>
<!DOCTYPE svg PUBLIC "-//W3C//DTD SVG 20010904//EN"
 "http://www.w3.org/TR/2001/REC-SVG-20010904/DTD/svg10.dtd">
<svg version="1.0" xmlns="http://www.w3.org/2000/svg"
 width="319.000000pt" height="263.000000pt" viewBox="0 0 319.000000 263.000000"
 preserveAspectRatio="xMidYMid meet">
<metadata>
Created by potrace 1.15, written by Peter Selinger 2001-2017
</metadata>
<g transform="translate(0.000000,263.000000) scale(0.100000,-0.100000)"
fill="#000000" stroke="none">
<path d="M1370 2446 c-88 -17 -103 -22 -195 -68 -171 -86 -286 -213 -310 -341
-4 -21 -11 -40 -16 -43 -13 -8 -11 -171 2 -213 6 -20 23 -61 37 -91 l25 -55
12 50 c24 98 98 270 144 331 9 12 23 32 31 45 65 102 232 225 345 254 67 17
185 20 185 5 0 -5 -14 -10 -31 -10 -80 0 -263 -108 -356 -211 -112 -124 -223
-356 -280 -589 -9 -37 -18 -123 -20 -202 -2 -76 -7 -138 -11 -138 -4 0 -19 19
-34 43 -77 122 -220 236 -344 276 -99 32 -196 51 -256 51 -66 0 -75 13 -22 30
70 23 198 12 329 -28 53 -16 203 -101 224 -126 25 -30 34 -18 29 42 -11 112
-83 185 -221 222 -170 46 -358 -4 -526 -139 l-44 -36 62 -7 c79 -9 203 -58
266 -106 129 -97 184 -131 238 -147 54 -16 62 -16 105 -1 l47 16 43 -48 c23
-26 62 -87 86 -137 24 -49 63 -130 87 -180 124 -260 395 -502 632 -566 23 -6
47 -14 52 -19 51 -40 466 -40 520 0 6 4 24 10 40 14 88 20 269 127 358 212
108 103 218 282 251 411 27 102 48 327 34 358 -6 14 -14 21 -18 15 -7 -12 -57
60 -66 96 -8 30 -48 32 -102 5 -45 -23 -59 -39 -105 -117 -77 -134 -94 -242
-51 -326 22 -43 32 -49 77 -41 31 5 41 1 61 -19 24 -24 24 -24 10 -93 -11 -51
-24 -80 -52 -114 -145 -179 -343 -295 -562 -330 -125 -21 -298 -9 -410 28 -62
21 -154 64 -180 85 -8 6 -28 18 -45 26 -54 26 -237 219 -283 298 -23 41 -42
77 -42 80 0 4 -7 21 -16 37 -79 151 -103 415 -54 588 l11 37 62 0 c85 0 146
31 223 111 69 73 106 132 195 309 49 99 75 138 123 186 63 63 152 113 240 135
25 6 43 15 40 20 -9 15 -134 75 -204 97 -71 23 -198 43 -263 41 -23 -1 -71 -7
-107 -13z"/>
<path d="M2115 2140 c-11 -5 -33 -9 -49 -9 -39 -1 -136 -32 -130 -42 2 -4 22
-10 45 -14 29 -5 43 -14 51 -30 6 -13 20 -26 32 -30 13 -4 16 -8 9 -12 -7 -2
-13 -17 -13 -32 0 -20 11 -35 42 -59 49 -37 54 -38 76 -13 10 10 42 26 72 36
70 22 106 58 91 92 -6 13 -11 33 -11 43 0 14 -7 20 -22 20 -12 0 -30 8 -40 17
-38 35 -112 51 -153 33z"/>
<path d="M1731 2071 c-12 -8 -12 -12 -2 -25 11 -14 11 -16 -4 -16 -10 0 -26 7
-36 16 -16 15 -19 14 -33 -15 -22 -42 -20 -48 13 -43 16 2 32 -1 35 -7 4 -6
17 -11 29 -11 20 1 21 2 5 14 -25 18 -22 26 6 26 14 0 28 5 31 10 3 6 17 10
31 10 13 0 24 -4 24 -10 0 -5 7 -10 15 -10 28 0 15 -20 -17 -27 l-33 -6 50
-18 c63 -22 75 -23 75 -4 0 10 10 15 26 15 23 0 18 7 -42 51 -59 43 -74 50
-106 47 -21 -2 -38 0 -38 4 0 10 -12 10 -29 -1z"/>
<path d="M1783 1930 c-13 -5 -23 -17 -23 -26 0 -8 -12 -29 -27 -45 -28 -29
-53 -38 -53 -19 0 5 -19 21 -41 36 -45 28 -44 28 -74 -28 -20 -36 -19 -36 13
-40 19 -2 28 -9 30 -25 2 -14 10 -23 22 -23 22 0 33 -23 17 -39 -16 -16 -37
-14 -37 4 0 24 -29 17 -42 -10 -6 -14 -15 -25 -21 -25 -14 0 2 53 21 68 15 11
15 14 2 22 -26 17 -34 11 -85 -66 -76 -115 -156 -182 -257 -217 -15 -5 -15
-12 7 -82 28 -90 38 -103 115 -144 36 -19 78 -54 110 -91 41 -47 58 -60 81
-60 42 0 53 -28 33 -82 -30 -79 -29 -119 5 -186 17 -34 44 -71 61 -84 47 -35
70 -92 70 -179 0 -88 13 -139 40 -164 19 -18 20 -17 20 4 0 31 18 61 36 61 8
0 17 7 20 15 4 8 13 15 22 15 8 0 33 18 54 41 21 22 61 50 88 62 37 17 66 42
115 101 36 43 65 81 65 85 0 26 -120 94 -188 107 l-33 6 21 23 21 22 -26 32
c-15 17 -49 43 -76 58 -37 21 -49 34 -49 52 0 21 -3 23 -35 18 -22 -4 -46 0
-66 10 -22 11 -34 12 -42 4 -17 -17 -27 -13 -27 9 0 26 -22 26 -45 0 -22 -24
-43 -25 -91 -5 -34 14 -35 17 -32 57 3 40 1 44 -30 58 -33 16 -33 14 -17 83 9
33 -13 37 -40 7 -26 -29 -66 -23 -83 13 -18 38 3 112 40 140 26 19 31 20 97 7
66 -12 70 -15 77 -44 3 -17 9 -35 11 -40 10 -15 23 19 23 60 0 40 22 74 48 74
7 0 31 18 54 41 61 59 126 89 193 89 59 0 70 10 30 28 -14 6 -25 16 -25 22 0
5 -9 10 -20 10 -11 0 -20 5 -20 10 0 6 35 10 85 10 103 0 107 8 38 81 -36 39
-52 49 -68 45 -15 -4 -29 2 -45 19 -25 27 -33 29 -67 15z m-83 -219 c0 -11
-69 -36 -77 -28 -6 6 46 36 65 37 6 0 12 -4 12 -9z"/>
<path d="M2670 1867 c0 -59 11 -81 50 -100 33 -17 36 -13 15 23 -8 14 -14 35
-15 47 0 12 -11 35 -25 50 l-24 28 -1 -48z"/>
<path d="M2404 1885 c22 -17 52 -20 60 -6 7 11 -18 21 -52 21 -26 -1 -26 -1
-8 -15z"/>
<path d="M2605 1770 c-5 -9 -1 -19 13 -31 12 -9 22 -24 22 -33 0 -8 10 -22 22
-30 17 -12 19 -18 10 -29 -9 -11 -8 -18 8 -32 36 -33 21 -65 -31 -65 -29 0
-26 -60 5 -87 21 -19 26 -20 44 -7 11 7 27 32 36 54 17 44 38 51 69 23 19 -17
19 -17 12 6 -5 17 -4 21 5 16 7 -4 9 -17 6 -31 -5 -17 1 -31 23 -53 l30 -30
-5 60 c-6 79 -73 253 -85 220 -7 -17 -14 -20 -33 -15 -19 4 -26 1 -31 -15 -8
-26 -32 -28 -39 -3 -4 9 -21 35 -39 56 -25 30 -36 36 -42 26z"/>
<path d="M1980 1745 c-16 -19 -14 -21 28 -30 36 -7 41 3 14 28 -23 21 -26 21
-42 2z"/>
<path d="M2594 1726 c-6 -17 2 -36 17 -36 12 0 12 37 -1 45 -6 3 -13 -1 -16
-9z"/>
<path d="M1180 1478 c0 -7 5 -20 10 -28 8 -12 10 -11 10 7 0 12 -4 25 -10 28
-5 3 -10 0 -10 -7z"/>
<path d="M1570 1350 c19 -11 42 -19 50 -19 8 0 -1 8 -20 19 -19 11 -42 19 -50
19 -8 0 1 -8 20 -19z"/>
<path d="M1670 1291 c0 -11 39 -25 47 -18 3 3 2 10 -2 16 -8 13 -45 15 -45 2z"/>
</g>
</svg>
