<svg width="134" height="104" viewBox="0 0 134 104" fill="none" xmlns="http://www.w3.org/2000/svg">
<path d="M61.7958 0.623404C57.6223 1.42964 56.911 1.66678 52.5478 3.84836C44.438 7.92698 38.984 13.9501 37.8458 20.0206C37.6561 21.0165 37.3241 21.9176 37.087 22.0599C36.4704 22.4393 36.5653 30.1697 37.1818 32.1616C37.4664 33.1101 38.2726 35.0545 38.9366 36.4773L40.1222 39.0857L40.6913 36.7144C41.8296 32.0667 45.3391 23.9095 47.5206 21.0165C47.9475 20.4474 48.6114 19.4989 48.9908 18.8823C52.0735 14.0449 59.9936 8.21153 65.3527 6.83618C68.5303 6.02995 74.1265 5.88767 74.1265 6.59906C74.1265 6.83619 73.4626 7.07331 72.6563 7.07331C68.8623 7.07331 60.1833 12.1953 55.7727 17.0802C50.461 22.961 45.1968 33.9637 42.4935 45.0139C42.0667 46.7687 41.6398 50.8473 41.545 54.5939C41.4501 58.1983 41.213 61.1387 41.0233 61.1387C40.8336 61.1387 40.1222 60.2376 39.4108 59.0994C35.759 53.3135 28.9772 47.9069 23.0964 46.0099C18.4012 44.4923 13.8009 43.5912 10.9554 43.5912C7.82526 43.5912 7.39842 42.9746 9.91199 42.1684C13.2318 41.0776 19.3023 41.5993 25.5151 43.4963C28.0286 44.2551 35.1425 48.2863 36.1385 49.472C37.3241 50.8947 37.7509 50.3256 37.5138 47.4801C36.9921 42.1684 33.5775 38.7063 27.0327 36.9516C18.9703 34.77 10.0543 37.1413 2.08673 43.5437L0 45.2511L2.9404 45.583C6.68704 46.0099 12.5678 48.3337 15.5557 50.6102C21.6736 55.2105 24.282 56.823 26.843 57.5818C29.404 58.3406 29.7834 58.3406 31.8227 57.6292L34.0517 56.8704L36.091 59.1468C37.1818 60.3799 39.0314 63.2729 40.1696 65.6442C41.3079 67.968 43.1575 71.8095 44.2957 74.1808C50.1765 86.5115 63.0289 97.9885 74.2688 101.024C75.3596 101.308 76.4978 101.688 76.7349 101.925C79.1536 103.822 98.8354 103.822 101.396 101.925C101.681 101.735 102.535 101.451 103.293 101.261C107.467 100.312 116.051 95.2378 120.272 91.2067C125.394 86.3218 130.611 77.8326 132.176 71.7147C133.456 66.8772 134.452 56.2064 133.788 54.7362C133.504 54.0723 133.124 53.7403 132.935 54.0248C132.603 54.5939 130.231 51.1793 129.804 49.472C129.425 48.0492 127.528 47.9543 124.967 49.2348C122.833 50.3256 122.169 51.0844 119.987 54.7837C116.335 61.1387 115.529 66.2607 117.569 70.2445C118.612 72.2838 119.086 72.5683 121.22 72.1889C122.691 71.9518 123.165 72.1415 124.113 73.09C125.252 74.2282 125.252 74.2282 124.588 77.5006C124.066 79.9193 123.449 81.2947 122.121 82.9071C115.245 91.3964 105.854 96.8977 95.4681 98.5577C89.5399 99.5536 81.3352 98.9845 76.0235 97.2297C73.0831 96.2338 68.72 94.1945 67.4869 93.1985C67.1075 92.914 66.159 92.3449 65.3527 91.9655C62.7917 90.7324 54.1128 81.5792 51.9312 77.8326C50.8404 75.8881 49.9394 74.1808 49.9394 74.0385C49.9394 73.8488 49.6074 73.0426 49.1805 72.2838C45.4339 65.1225 44.2957 52.6021 46.6196 44.3974L47.1412 42.6427H50.0816C54.1128 42.6427 57.0058 41.1725 60.6576 37.3784C63.93 33.9163 65.6847 31.1182 69.9056 22.7238C72.2295 18.0287 73.4626 16.1791 75.739 13.9026C78.7268 10.9148 82.9477 8.54351 87.1212 7.50015C88.3068 7.21559 89.1605 6.78875 89.0182 6.55162C88.5914 5.84024 82.6632 2.9947 79.3434 1.95133C75.9761 0.860535 69.953 -0.0879837 66.8704 0.00686783C65.7796 0.0542936 63.5031 0.33885 61.7958 0.623404Z" fill="#52C772"/>
<path d="M97.1288 15.1359C96.6071 15.373 95.5637 15.5627 94.8049 15.5627C92.9553 15.6101 88.355 17.0803 88.6396 17.5546C88.7344 17.7443 89.6829 18.0289 90.7737 18.2186C92.1491 18.4557 92.813 18.8825 93.1925 19.6413C93.477 20.2579 94.141 20.8744 94.7101 21.0641C95.3266 21.2538 95.4689 21.4435 95.1369 21.6332C94.8049 21.7281 94.5204 22.4395 94.5204 23.1508C94.5204 24.0994 95.0421 24.8107 96.5123 25.949C98.8361 27.7037 99.0733 27.7511 100.117 26.5655C100.591 26.0912 102.109 25.3324 103.531 24.8582C106.851 23.8148 108.558 22.1075 107.847 20.495C107.562 19.8785 107.325 18.9299 107.325 18.4557C107.325 17.7917 106.993 17.5072 106.282 17.5072C105.713 17.5072 104.859 17.1278 104.385 16.7009C102.583 15.041 99.0733 14.2822 97.1288 15.1359Z" fill="#477E6A"/>
<path d="M78.917 18.4085C78.3479 18.7879 78.3479 18.9776 78.8221 19.5941C79.3438 20.2581 79.3438 20.3529 78.6324 20.3529C78.1582 20.3529 77.3994 20.0209 76.9251 19.5941C76.1663 18.8827 76.024 18.9301 75.3601 20.3055C74.3167 22.2974 74.4115 22.5819 75.9766 22.3448C76.7354 22.2499 77.4942 22.3922 77.6365 22.6768C77.8262 22.9613 78.4427 23.1985 79.0118 23.1985C79.9604 23.151 80.0078 23.1036 79.249 22.5345C78.0633 21.6808 78.2056 21.3014 79.5335 21.3014C80.1975 21.3014 80.8615 21.0643 81.0037 20.8272C81.146 20.5426 81.81 20.3529 82.4739 20.3529C83.0905 20.3529 83.6121 20.5426 83.6121 20.8272C83.6121 21.0643 83.9441 21.3014 84.3235 21.3014C85.6515 21.3014 85.0349 22.2499 83.5173 22.5819L81.9522 22.8665L84.3235 23.7201C87.3114 24.7635 87.8805 24.8109 87.8805 23.9098C87.8805 23.4356 88.3547 23.1985 89.1135 23.1985C90.2043 23.1985 89.9672 22.8665 87.1217 20.7797C84.3235 18.7404 83.6121 18.4085 82.0945 18.5507C81.0986 18.6456 80.2923 18.5507 80.2923 18.361C80.2923 17.8868 79.7232 17.8868 78.917 18.4085Z" fill="#477E6A"/>
<path d="M81.3837 25.0948C80.7672 25.332 80.2929 25.9011 80.2929 26.3279C80.2929 26.7073 79.7238 27.7033 79.0124 28.4621C77.6845 29.8374 76.4989 30.2643 76.4989 29.3632C76.4989 29.126 75.5978 28.3672 74.5544 27.6558C72.4203 26.3279 72.4677 26.3279 71.0449 28.9838C70.0964 30.6911 70.1438 30.6911 71.6614 30.8808C72.5625 30.9756 72.9894 31.3076 73.0842 32.0664C73.1791 32.7304 73.5585 33.1572 74.1276 33.1572C75.171 33.1572 75.6926 34.248 74.9338 35.0068C74.175 35.7656 73.1791 35.6708 73.1791 34.8171C73.1791 33.6789 71.8037 34.0109 71.1872 35.2914C70.9026 35.9554 70.4758 36.477 70.1912 36.477C69.5273 36.477 70.2861 33.9635 71.1872 33.2521C71.8986 32.7304 71.8986 32.5881 71.282 32.2087C70.049 31.4025 69.6696 31.687 67.2508 35.3388C63.6465 40.7928 59.8524 43.9703 55.0624 45.6302C54.351 45.8673 54.351 46.1993 55.3944 49.5191C56.7223 53.7875 57.1966 54.404 60.8484 56.3484C62.5557 57.2495 64.5476 58.9094 66.0652 60.6642C68.0097 62.8932 68.8159 63.5097 69.9067 63.5097C71.8986 63.5097 72.4203 64.8377 71.4717 67.3987C70.049 71.1453 70.0964 73.0423 71.7089 76.2199C72.5151 77.8323 73.7956 79.5871 74.6018 80.2036C76.8309 81.8635 77.9216 84.5668 77.9216 88.6928C77.9216 92.8663 78.5382 95.285 79.8187 96.4707C80.7198 97.3243 80.7672 97.2769 80.7672 96.281C80.7672 94.8108 81.6209 93.388 82.4745 93.388C82.8539 93.388 83.2808 93.056 83.423 92.6766C83.6127 92.2972 84.0396 91.9652 84.4664 91.9652C84.8458 91.9652 86.0315 91.1115 87.0274 90.0208C88.0233 88.9774 89.9204 87.6495 91.2009 87.0804C92.9556 86.2741 94.331 85.0885 96.6548 82.2904C98.3622 80.251 99.7375 78.4489 99.7375 78.2592C99.7375 77.0261 94.0464 73.8011 90.8215 73.1846L89.2564 72.9L90.2524 71.8093L91.2483 70.7659L90.0152 69.2483C89.3038 68.442 87.6914 67.209 86.4109 66.4976C84.6561 65.5016 84.087 64.8851 84.087 64.0314C84.087 63.0355 83.9447 62.9406 82.4271 63.1778C81.3837 63.3675 80.2455 63.1778 79.297 62.7035C78.2536 62.1818 77.6845 62.1344 77.3051 62.5138C76.4989 63.32 76.0246 63.1303 76.0246 62.087C76.0246 60.8539 74.9813 60.8539 73.8905 62.087C72.8471 63.2252 71.8511 63.2726 69.5747 62.3241C67.9622 61.6601 67.9148 61.5179 68.0571 59.6208C68.1994 57.7238 68.1045 57.5341 66.6343 56.8701C65.0693 56.1113 65.0693 56.2062 65.8281 52.9338C66.2549 51.3687 65.2115 51.179 63.931 52.6018C62.698 53.9772 60.8009 53.6926 59.9947 51.9853C59.141 50.1831 60.137 46.6736 61.8917 45.3457C63.1248 44.4446 63.3619 44.3971 66.492 45.0137C69.6221 45.5828 69.8118 45.7251 70.1438 47.1004C70.2861 47.9067 70.5707 48.7603 70.6655 48.9974C71.1398 49.7088 71.7563 48.0964 71.7563 46.1519C71.7563 44.2549 72.7997 42.6424 74.0327 42.6424C74.3647 42.6424 75.5029 41.7887 76.5937 40.6979C79.4867 37.8998 82.5694 36.477 85.7469 36.477C88.545 36.477 89.0667 36.0028 87.1697 35.1491C86.5057 34.8646 85.984 34.3903 85.984 34.1057C85.984 33.8686 85.5572 33.6315 85.0355 33.6315C84.5138 33.6315 84.087 33.3944 84.087 33.1572C84.087 32.8727 85.7469 32.683 88.1182 32.683C93.003 32.683 93.1928 32.3036 89.9204 28.8415C88.213 26.9919 87.4542 26.5176 86.6954 26.7073C85.984 26.897 85.3201 26.6125 84.5613 25.8062C83.3756 24.5257 82.9962 24.4309 81.3837 25.0948ZM77.4474 35.4811C77.4474 36.0028 74.175 37.1884 73.7956 36.809C73.5111 36.5245 75.9772 35.1017 76.8783 35.0543C77.1628 35.0543 77.4474 35.244 77.4474 35.4811Z" fill="#477E6A"/>
<path d="M123.449 28.0831C123.449 30.8812 123.971 31.9246 125.821 32.8257C127.386 33.6319 127.528 33.4422 126.532 31.7349C126.152 31.0709 125.868 30.075 125.821 29.5059C125.821 28.9368 125.299 27.846 124.635 27.1346L123.497 25.8067L123.449 28.0831Z" fill="#477E6A"/>
<path d="M110.834 27.2294C111.877 28.0356 113.3 28.1779 113.679 27.514C114.011 26.9923 112.826 26.518 111.213 26.518C109.98 26.5654 109.98 26.5654 110.834 27.2294Z" fill="#477E6A"/>
<path d="M120.367 32.683C120.13 33.1099 120.32 33.5841 120.984 34.1532C121.553 34.5801 122.027 35.2915 122.027 35.7183C122.027 36.0977 122.502 36.7617 123.071 37.1411C123.877 37.7102 123.972 37.9947 123.545 38.5164C123.118 39.0381 123.165 39.3701 123.924 40.034C125.632 41.5991 124.92 43.1167 122.454 43.1167C121.079 43.1167 121.221 45.9623 122.691 47.2428C123.687 48.1439 123.924 48.1913 124.778 47.5747C125.3 47.2428 126.058 46.0571 126.485 45.0138C127.292 42.927 128.287 42.595 129.758 43.923C130.659 44.7292 130.659 44.7292 130.327 43.6384C130.09 42.8322 130.137 42.6425 130.564 42.8796C130.896 43.0693 130.991 43.6858 130.848 44.3498C130.611 45.156 130.896 45.82 131.939 46.8634L133.362 48.2861L133.125 45.4406C132.84 41.6939 129.663 33.4419 129.094 35.0069C128.762 35.8132 128.43 35.9554 127.529 35.7183C126.628 35.5286 126.296 35.6709 126.058 36.4297C125.679 37.6628 124.541 37.7576 124.209 36.572C124.019 36.1451 123.213 34.9121 122.359 33.9161C121.174 32.4933 120.652 32.2088 120.367 32.683Z" fill="#477E6A"/>
<path d="M90.7261 33.8684C89.9673 34.7695 90.0621 34.8643 92.054 35.2912C93.7613 35.6231 93.9985 35.1489 92.718 33.9632C91.6272 32.9673 91.4849 32.9673 90.7261 33.8684Z" fill="#477E6A"/>
<path d="M119.845 34.7702C119.56 35.5764 119.94 36.4775 120.651 36.4775C121.22 36.4775 121.22 34.7228 120.604 34.3434C120.319 34.2011 119.987 34.3908 119.845 34.7702Z" fill="#477E6A"/>
<path d="M52.7852 46.5313C52.7852 46.8633 53.0223 47.4798 53.2594 47.8592C53.6388 48.4283 53.7337 48.3809 53.7337 47.5273C53.7337 46.9581 53.544 46.3416 53.2594 46.1993C53.0223 46.0571 52.7852 46.1993 52.7852 46.5313Z" fill="#477E6A"/>
<path d="M71.2805 52.6018C72.1815 53.1235 73.2723 53.5029 73.6517 53.5029C74.0312 53.5029 73.6043 53.1235 72.7032 52.6018C71.8021 52.0802 70.7113 51.7007 70.3319 51.7007C69.9525 51.7007 70.3794 52.0802 71.2805 52.6018Z" fill="#477E6A"/>
<path d="M76.0234 55.3999C76.0234 55.9216 77.873 56.5856 78.2524 56.2536C78.3947 56.1113 78.3473 55.7793 78.1576 55.4948C77.7782 54.8782 76.0234 54.7834 76.0234 55.3999Z" fill="#477E6A"/>
</svg>
